<svg width="92" height="92" viewBox="0 0 92 92" fill="none" xmlns="http://www.w3.org/2000/svg">
<g filter="url(#filter0_d_631_341)">
<rect x="14" y="14" width="64" height="64" rx="4" fill="#E6D8C3"/>
<rect x="14.35" y="14.35" width="63.3" height="63.3" rx="3.65" stroke="#6C583A" stroke-width="0.7"/>
</g>
<mask id="path-3-inside-1_631_341" fill="white">
<path d="M61.0944 38.151V36.9435H58.6793V36.3397C58.6793 34.6745 57.3245 33.3209 55.6605 33.3209H55.0567V30.9058H53.8491V33.3209H51.434V30.9058H50.2265V33.3209H47.2076V30.9058H46.0001V33.3209H42.9812V30.9058H41.7737V33.3209H39.3586V30.9058H38.151V33.3209H37.5472C35.8832 33.3209 34.5284 34.6745 34.5284 36.3397V36.9435H32.1133V38.151H34.5284V40.5661H32.1133V41.7737H34.5284V44.7926H32.1133V46.0001H34.5284V49.019H32.1133V50.2265H34.5284V52.6416H32.1133V53.8492H34.5284V57.4718H38.151V59.8869H39.3586V57.4718H41.7737V59.8869H42.9812V57.4718H46.0001V59.8869H47.2076V57.4718H50.2265V59.8869H51.434V57.4718H53.8491V59.8869H55.0567V57.4718H58.6793V53.8492H61.0944V52.6416H58.6793V50.2265H61.0944V49.019H58.6793V46.0001H61.0944V44.7926H58.6793V41.7737H61.0944V40.5661H58.6793V38.151H61.0944ZM57.4718 56.2643H35.7359V36.3397C35.7359 35.3411 36.5486 34.5284 37.5472 34.5284H55.6605C56.6591 34.5284 57.4718 35.3411 57.4718 36.3397V56.2643ZM51.434 39.3586H52.6416V51.4341H51.434V39.3586ZM44.1888 39.3381C43.521 39.3381 42.9438 39.809 42.718 40.5396L39.3586 51.4329H40.6217L41.3667 49.0178H47.0108L47.7558 51.4329H49.0189L45.6595 40.5384C45.4337 39.809 44.8565 39.3381 44.1888 39.3381ZM41.7386 47.8114L43.8712 40.897C43.9255 40.7219 44.0438 40.5468 44.1888 40.5468C44.3337 40.5468 44.452 40.7231 44.5063 40.8958L46.6389 47.8126H41.7398L41.7386 47.8114Z"/>
</mask>
<path d="M61.0944 38.151V36.9435H58.6793V36.3397C58.6793 34.6745 57.3245 33.3209 55.6605 33.3209H55.0567V30.9058H53.8491V33.3209H51.434V30.9058H50.2265V33.3209H47.2076V30.9058H46.0001V33.3209H42.9812V30.9058H41.7737V33.3209H39.3586V30.9058H38.151V33.3209H37.5472C35.8832 33.3209 34.5284 34.6745 34.5284 36.3397V36.9435H32.1133V38.151H34.5284V40.5661H32.1133V41.7737H34.5284V44.7926H32.1133V46.0001H34.5284V49.019H32.1133V50.2265H34.5284V52.6416H32.1133V53.8492H34.5284V57.4718H38.151V59.8869H39.3586V57.4718H41.7737V59.8869H42.9812V57.4718H46.0001V59.8869H47.2076V57.4718H50.2265V59.8869H51.434V57.4718H53.8491V59.8869H55.0567V57.4718H58.6793V53.8492H61.0944V52.6416H58.6793V50.2265H61.0944V49.019H58.6793V46.0001H61.0944V44.7926H58.6793V41.7737H61.0944V40.5661H58.6793V38.151H61.0944ZM57.4718 56.2643H35.7359V36.3397C35.7359 35.3411 36.5486 34.5284 37.5472 34.5284H55.6605C56.6591 34.5284 57.4718 35.3411 57.4718 36.3397V56.2643ZM51.434 39.3586H52.6416V51.4341H51.434V39.3586ZM44.1888 39.3381C43.521 39.3381 42.9438 39.809 42.718 40.5396L39.3586 51.4329H40.6217L41.3667 49.0178H47.0108L47.7558 51.4329H49.0189L45.6595 40.5384C45.4337 39.809 44.8565 39.3381 44.1888 39.3381ZM41.7386 47.8114L43.8712 40.897C43.9255 40.7219 44.0438 40.5468 44.1888 40.5468C44.3337 40.5468 44.452 40.7231 44.5063 40.8958L46.6389 47.8126H41.7398L41.7386 47.8114Z" fill="#E6D8C3" stroke="#3C3C3C" stroke-width="1.4" mask="url(#path-3-inside-1_631_341)"/>
<defs>
<filter id="filter0_d_631_341" x="0.716981" y="0.716981" width="90.566" height="90.566" filterUnits="userSpaceOnUse" color-interpolation-filters="sRGB">
<feFlood flood-opacity="0" result="BackgroundImageFix"/>
<feColorMatrix in="SourceAlpha" type="matrix" values="0 0 0 0 0 0 0 0 0 0 0 0 0 0 0 0 0 0 127 0" result="hardAlpha"/>
<feOffset/>
<feGaussianBlur stdDeviation="6.64151"/>
<feComposite in2="hardAlpha" operator="out"/>
<feColorMatrix type="matrix" values="0 0 0 0 0 0 0 0 0 0 0 0 0 0 0 0 0 0 0.16 0"/>
<feBlend mode="normal" in2="BackgroundImageFix" result="effect1_dropShadow_631_341"/>
<feBlend mode="normal" in="SourceGraphic" in2="effect1_dropShadow_631_341" result="shape"/>
</filter>
</defs>
</svg>
