<svg xmlns="http://www.w3.org/2000/svg" width="22" height="22" viewBox="0 0 22 22" fill="none">
  <path d="M15.5827 16.5C16.0689 16.5 16.5352 16.6931 16.879 17.037C17.2229 17.3808 17.416 17.8471 17.416 18.3333C17.416 18.8195 17.2229 19.2859 16.879 19.6297C16.5352 19.9735 16.0689 20.1666 15.5827 20.1666C15.0965 20.1666 14.6301 19.9735 14.2863 19.6297C13.9425 19.2859 13.7493 18.8195 13.7493 18.3333C13.7493 17.3158 14.5652 16.5 15.5827 16.5ZM0.916016 1.83331H3.91352L4.77518 3.66665H18.3327C18.5758 3.66665 18.809 3.76322 18.9809 3.93513C19.1528 4.10704 19.2493 4.3402 19.2493 4.58331C19.2493 4.73915 19.2035 4.89498 19.1393 5.04165L15.8577 10.9725C15.546 11.5316 14.941 11.9166 14.2535 11.9166H7.42435L6.59935 13.4108L6.57185 13.5208C6.57185 13.5816 6.59599 13.6399 6.63897 13.6829C6.68195 13.7258 6.74024 13.75 6.80102 13.75H17.416V15.5833H6.41602C5.92979 15.5833 5.46347 15.3902 5.11965 15.0463C4.77584 14.7025 4.58268 14.2362 4.58268 13.75C4.58268 13.4291 4.66518 13.1266 4.80268 12.87L6.04935 10.6241L2.74935 3.66665H0.916016V1.83331ZM6.41602 16.5C6.90225 16.5 7.36856 16.6931 7.71238 17.037C8.05619 17.3808 8.24935 17.8471 8.24935 18.3333C8.24935 18.8195 8.05619 19.2859 7.71238 19.6297C7.36856 19.9735 6.90225 20.1666 6.41602 20.1666C5.92979 20.1666 5.46347 19.9735 5.11965 19.6297C4.77584 19.2859 4.58268 18.8195 4.58268 18.3333C4.58268 17.3158 5.39852 16.5 6.41602 16.5ZM14.666 10.0833L17.2143 5.49998H5.62768L7.79102 10.0833H14.666Z" fill="black"/>
</svg>