<svg width="15" height="14" viewBox="0 0 15 14" fill="none" xmlns="http://www.w3.org/2000/svg">
<path d="M14.4146 6.43631H13.3976C13.2646 5.15553 12.6545 3.95749 11.6719 3.04767C10.6893 2.13784 9.39544 1.57295 8.0122 1.44986V0.50813C8.0122 0.373366 7.95438 0.244121 7.85146 0.148828C7.74855 0.053535 7.60896 0 7.46341 0C7.31787 0 7.17828 0.053535 7.07537 0.148828C6.97245 0.244121 6.91463 0.373366 6.91463 0.50813V1.44986C5.53744 1.5791 4.25137 2.14686 3.2759 3.05625C2.30044 3.96564 1.69604 5.16029 1.56585 6.43631H0.548781C0.476714 6.43631 0.405352 6.44946 0.338771 6.47499C0.27219 6.50053 0.211693 6.53796 0.160734 6.58514C0.109775 6.63233 0.0693522 6.68834 0.0417734 6.74999C0.0141946 6.81164 0 6.87772 0 6.94444C0 7.01117 0.0141946 7.07725 0.0417734 7.1389C0.0693522 7.20055 0.109775 7.25656 0.160734 7.30375C0.211693 7.35093 0.27219 7.38836 0.338771 7.4139C0.405352 7.43943 0.476714 7.45257 0.548781 7.45257H1.56585C1.69878 8.73336 2.30887 9.9314 3.29148 10.8412C4.27409 11.751 5.56798 12.3159 6.95122 12.439V13.3808C6.95122 13.5155 7.00904 13.6448 7.11195 13.7401C7.21487 13.8354 7.35445 13.8889 7.5 13.8889C7.64555 13.8889 7.78513 13.8354 7.88805 13.7401C7.99096 13.6448 8.04878 13.5155 8.04878 13.3808V12.439C9.43152 12.3147 10.7246 11.7494 11.707 10.8398C12.6893 9.93023 13.2999 8.73289 13.4341 7.45257H14.4512C14.5233 7.45257 14.5946 7.43943 14.6612 7.4139C14.7278 7.38836 14.7883 7.35093 14.8393 7.30375C14.8902 7.25656 14.9306 7.20055 14.9582 7.1389C14.9858 7.07725 15 7.01117 15 6.94444C15 6.87772 14.9858 6.81164 14.9582 6.74999C14.9306 6.68834 14.8902 6.63233 14.8393 6.58514C14.7883 6.53796 14.7278 6.50053 14.6612 6.47499C14.5946 6.44946 14.5233 6.43631 14.4512 6.43631H14.4146ZM7.46341 11.4431C6.50249 11.4431 5.56314 11.1792 4.76416 10.6849C3.96517 10.1906 3.34244 9.48802 2.97471 8.666C2.60698 7.84398 2.51077 6.93945 2.69823 6.0668C2.8857 5.19415 3.34843 4.39257 4.02791 3.76342C4.70739 3.13428 5.5731 2.70582 6.51556 2.53224C7.45802 2.35866 8.43491 2.44775 9.3227 2.78824C10.2105 3.12873 10.9693 3.70533 11.5031 4.44513C12.037 5.18493 12.322 6.0547 12.322 6.94444C12.322 8.13818 11.8103 9.28313 10.8994 10.1279C9.98842 10.9726 8.75265 11.4481 7.46341 11.4499V11.4431Z" fill="black"/>
<path d="M10.7787 6.95113C10.7787 7.55977 10.5837 8.15473 10.2183 8.6607C9.85296 9.16667 9.33371 9.56091 8.72628 9.79352C8.11884 10.0261 7.45054 10.0866 6.80594 9.96741C6.16135 9.84817 5.56945 9.55455 5.10516 9.1237C4.64087 8.69285 4.32506 8.14415 4.19771 7.54704C4.07036 6.94993 4.13719 6.33127 4.38974 5.76934C4.64229 5.20742 5.06922 4.7275 5.61647 4.39033C6.16372 4.05317 6.80671 3.87391 7.46404 3.87525C7.89994 3.87525 8.33156 3.95486 8.73418 4.10952C9.13681 4.26418 9.50254 4.49086 9.81043 4.77657C10.1183 5.06228 10.3623 5.40141 10.5285 5.77456C10.6946 6.1477 10.7796 6.54752 10.7787 6.95113Z" fill="black"/>
</svg>
