<svg width="199" height="73" viewBox="0 0 199 73" fill="none" xmlns="http://www.w3.org/2000/svg">
<path d="M64.4683 4.36515C62.7737 7.16468 61.2175 9.91696 59.249 12.3938C58.0428 13.9115 58.5492 15.648 58.6429 17.262C58.9321 22.2419 59.4193 27.21 59.7955 32.1853C60.1252 36.544 61.101 40.7945 61.8536 45.0839C62.1963 47.0369 62.6813 49.0155 62.0275 51.0094C61.8968 51.4083 61.7882 51.8228 61.5957 52.1915C60.9724 53.3851 60.2193 54.6103 58.7333 54.5997C57.2324 54.589 56.7005 53.2403 56.2582 52.0588C54.7112 47.9264 54.3531 43.57 53.9847 39.2259C53.4136 32.4927 54.1572 25.8047 54.8853 18.8821C53.8824 19.7303 53.4355 20.6674 52.9586 21.5683C49.4409 28.2128 46.2346 35.0236 42.3832 41.4892C40.4152 44.7929 38.2773 47.9745 35.3549 50.5538C31.5386 53.922 27.3613 53.7348 24.0111 49.8803C20.0522 45.3253 17.0565 40.1327 14.2988 34.7953C14.0577 34.3286 13.8331 33.8532 13.5846 33.3906C13.5183 33.2672 13.3917 33.1763 13.0641 32.8256C13.0641 34.2717 13.0513 35.4546 13.0665 36.6371C13.1171 40.5893 13.0941 44.5514 11.8032 48.3359C11.0682 50.4907 10.4092 52.8349 7.70275 53.507C4.799 54.228 3.08765 52.7 3.81591 49.8587C4.87191 45.7387 6.22095 41.6964 7.02481 37.5079C7.82666 33.3299 8.44361 29.1274 8.75732 24.8865C8.83213 23.8752 8.27814 22.9664 7.79426 22.0883C6.03502 18.8958 3.76984 16.0559 1.58747 13.1568C0.940324 12.2971 0.159313 11.4877 0 10.3011C1.12384 9.70016 1.90421 10.3255 2.65904 10.8392C5.57608 12.8243 7.78675 15.4953 9.79405 18.3466C13.8367 24.0891 16.6566 30.526 20.1308 36.5913C21.877 39.6398 23.3826 42.8561 25.9988 45.3311C28.1389 47.3556 29.4695 47.3678 31.4159 45.125C34.5423 41.5227 36.7659 37.3278 39.0038 33.1582C42.9817 25.7466 46.6543 18.1618 51.6092 11.3142C54.0192 7.98377 56.5067 4.7266 59.849 2.24423C60.8738 1.48308 61.9931 0.893358 63.2342 0.606839C63.8815 0.45742 64.6303 0.302476 65.1604 0.903869C65.6906 1.50527 65.463 2.1938 65.1984 2.83773C64.9991 3.32287 64.7526 3.78862 64.4683 4.36515Z" fill="white"/>
<path d="M121.794 34.6078C125.991 26.9478 129.651 19.117 134.658 12.0507C136.668 9.213 138.769 6.45764 141.278 4.03535C142.612 2.74675 144.07 1.63206 145.806 0.937894C146.734 0.567074 147.841 0.0582851 148.616 0.870945C149.392 1.686 148.896 2.79909 148.391 3.66191C147.09 5.88367 145.979 8.29573 144.299 10.1963C142.13 12.6506 142.026 15.3469 142.274 18.262C142.765 24.0157 142.975 29.789 143.738 35.5258C144.19 38.9175 145.049 42.2237 145.508 45.6041C145.725 47.2074 146.103 48.8094 145.732 50.4509C145.495 51.4951 145.09 52.4505 144.45 53.3032C143.032 55.1921 141.349 55.0964 140.265 53.0116C139.134 50.8384 138.668 48.4566 138.33 46.0576C137.59 40.796 137.075 35.5105 137.375 30.1935C137.553 27.0521 137.97 23.9244 138.262 20.7889C138.31 20.2736 138.268 19.75 138 19.092C137.428 20.0528 136.809 20.9888 136.292 21.9785C132.986 28.3174 129.905 34.7765 126.273 40.9423C124.295 44.2993 122.177 47.5578 119.291 50.2437C115.288 53.9696 111.098 53.869 107.486 49.7417C103.618 45.3231 100.702 40.2618 98.0136 35.0653C97.6617 34.3851 97.4816 33.589 96.8282 33.0342C96.3512 34.0172 96.3977 35.0278 96.4809 36.0042C96.7414 39.0592 96.474 42.088 96.1298 45.114C95.871 47.3894 95.1525 49.5205 93.948 51.4766C93.2524 52.6063 92.2897 53.3331 90.9443 53.5615C88.2209 54.0237 86.7027 52.574 87.4012 49.9517C88.8738 44.4228 90.5555 38.9453 91.3406 33.2569C91.7276 30.4529 92.2745 27.6439 92.324 24.8297C92.3573 22.9342 91.0209 21.3104 89.9484 19.76C88.2441 17.2965 86.4169 14.9184 84.6731 12.4817C84.2018 11.8232 83.5122 11.232 83.6561 10.2037C84.7669 9.70857 85.5752 10.404 86.3547 10.9569C90.0766 13.5967 92.7089 17.2046 95.1038 21.0019C98.6706 26.6573 101.431 32.7598 104.774 38.5406C106.039 40.7275 107.277 42.9293 108.98 44.8173C111.435 47.5385 113.11 47.5083 115.407 44.6853C117.909 41.6109 119.831 38.1641 121.794 34.6078Z" fill="white"/>
<path d="M171.582 35.6777C170.763 33.6016 171.003 32.2177 172.346 31.1563C173.197 30.4835 174.163 30.2365 175.137 30.7606C176.025 31.2385 175.964 32.1324 175.828 33C175.79 33.2477 175.822 33.5067 175.822 33.7536C176.596 34.2711 177.401 33.9689 178.164 33.9793C180.174 34.0069 180.756 34.6319 180.326 36.6031C179.799 39.0215 179.325 41.4413 179.371 43.9271C179.384 44.6325 179.202 45.4036 179.767 46.0329C180.648 45.9896 180.85 45.2592 181.15 44.686C182.518 42.0688 183.583 39.3321 184.338 36.473C184.825 34.6292 185.522 32.8834 186.825 31.4312C189.511 28.4381 193.461 28.2329 196.273 31.1019C198.934 33.8166 199.524 37.171 198.578 40.7502C197.721 43.9939 195.879 46.4566 192.375 47.1989C189.946 47.7136 187.795 47.1418 186.04 45.3155C185.755 45.0181 185.483 44.7075 185.093 44.2811C184.246 45.443 183.452 46.5198 182.672 47.6067C182.172 48.3032 181.534 48.8479 180.817 49.2948C178.251 50.8929 175.938 50.0709 174.94 47.247C174.031 44.6755 174.223 42.0809 174.685 39.467C174.833 38.6243 175.185 37.7931 174.993 36.7861C174.215 37.065 174.233 37.6951 174.093 38.2029C173.269 41.2027 172.326 44.1513 170.511 46.7339C169.654 47.9526 168.676 49.0379 167.272 49.6514C164.91 50.6838 163.127 49.9804 162.211 47.5724C161.061 44.5497 161.477 41.4718 161.998 38.3988C162.079 37.9179 162.487 37.4306 161.965 36.8721C161.311 37.0923 161.277 37.6996 161.132 38.224C160.486 40.5597 159.678 42.8354 158.593 45.0051C158.002 46.1869 157.305 47.3032 156.276 48.1622C154.103 49.976 151.407 49.4513 150.053 46.9411C149.315 45.5719 149.078 44.0667 148.985 42.535C148.801 39.5333 149.286 36.5557 149.32 33.559C149.339 31.911 150.532 31.0195 152.183 31.1469C153.84 31.2748 154.99 32.4447 154.836 34.0451C154.63 36.1854 154.242 38.3077 154.018 40.4467C153.851 42.0383 153.667 43.6681 154.649 45.1381C155.552 44.9642 155.732 44.2332 156.008 43.6545C157.122 41.3232 157.895 38.8688 158.592 36.3844C158.771 35.7444 158.534 35.2752 158.35 34.7317C157.821 33.1594 158.688 31.3111 160.212 30.6907C161.876 30.013 163.09 30.8438 163.014 32.6178C162.998 32.9781 162.936 33.3365 162.89 33.7431C163.697 34.2756 164.551 33.9624 165.355 33.9775C167.289 34.0138 167.763 34.5292 167.424 36.5278C167.029 38.856 166.44 41.1573 166.479 43.5399C166.493 44.3491 166.267 45.2214 167.174 46.2803C169.512 43.0246 170.668 39.4645 171.582 35.6777ZM189.602 35.6998C189.511 37.7924 189.32 39.9004 190.156 41.9021C190.517 42.7671 190.896 43.7948 192.064 43.6901C193.128 43.5948 193.387 42.6146 193.608 41.7373C194.036 40.0355 193.937 38.3044 193.818 36.58C193.738 35.4203 193.425 34.3116 192.871 33.2821C192.585 32.7524 192.199 32.3345 191.547 32.3058C190.828 32.2743 190.538 32.8149 190.321 33.3463C190.045 34.021 189.857 34.732 189.602 35.6998Z" fill="white"/>
<path d="M77.9675 60.8307C77.1109 61.733 76.2092 62.3721 75.088 62.5757C73.905 62.7906 73.1185 62.4362 73.1958 61.0287C73.3714 57.8294 73.4789 54.6255 73.7094 51.4304C73.8155 49.9599 73.848 48.4987 73.8313 47.0316C73.3593 46.8684 73.2665 47.2887 73.101 47.4861C72.1069 48.6712 71.0362 49.584 69.3194 49.0822C67.4616 48.5392 66.407 47.2723 65.9831 45.4505C65.6361 43.9591 65.6054 42.4335 65.62 40.9054C65.6511 37.6467 65.6295 34.3872 65.683 31.1289C65.72 28.869 66.637 27.8778 68.8516 27.5347C70.7919 27.234 71.9067 28.1649 71.7819 30.1288C71.5224 34.214 71.1729 38.2934 70.9021 42.3779C70.86 43.0121 70.6657 43.7641 71.4616 44.2918C72.2216 43.8854 72.3788 43.0827 72.6091 42.3751C73.6193 39.2715 74.2871 36.0928 74.5572 32.8364C74.7495 30.5177 76.0981 29.4752 78.3811 29.9314C79.5316 30.1612 80.3654 30.7655 80.2291 32.0703C79.3595 40.3931 79.4048 48.7495 79.2938 57.0995C79.2756 58.4756 78.9097 59.6826 77.9675 60.8307Z" fill="white"/>
<path d="M157.629 23.8535C157.738 26.3175 156.435 27.9278 153.89 28.4072C152.443 28.6798 150.956 28.6588 149.526 28.1605C147.67 27.5134 146.939 25.6536 147.872 23.9593C149.295 21.373 155.993 20.0965 157.629 23.8535Z" fill="white"/>
<path d="M95.6507 69.6511C95.7478 71.446 94.9153 72.564 93.5433 72.6587C92.3831 72.7387 91.1483 71.6829 91.0315 70.511C90.9118 69.3095 91.8821 68.1224 93.1357 67.9936C94.3392 67.87 95.1228 68.4742 95.6507 69.6511ZM92.4608 70.9144C92.8859 71.5109 93.3981 71.741 94.018 71.2097C94.4621 70.8292 94.5158 70.3125 94.315 69.7917C94.1473 69.3566 93.7712 69.1561 93.3212 69.2204C92.4557 69.344 92.2767 69.941 92.4608 70.9144Z" fill="white"/>
<path d="M28.6078 69.3784C30.1745 67.4785 32.1884 67.5213 32.928 69.3804C33.3033 70.3239 33.2433 71.2834 32.4301 71.979C31.6805 72.6202 30.772 72.9585 29.8145 72.4071C28.6937 71.7616 28.197 70.7986 28.6078 69.3784ZM29.9397 70.9016C30.311 71.4567 30.7761 71.7191 31.3868 71.2771C31.869 70.928 31.9854 70.4173 31.7868 69.8749C31.5997 69.3638 31.1621 69.1593 30.6491 69.2495C29.8238 69.3946 29.7385 69.9952 29.9397 70.9016Z" fill="white"/>
<path d="M48.9835 71.427C49.133 71.8527 49.5033 72.3075 49.024 72.4747C48.1611 72.7757 48.0712 71.6618 47.4296 71.4308C46.9296 71.5991 47.1796 72.4988 46.4627 72.4713C45.9381 71.7352 45.7138 68.7109 46.22 68.2404C46.8586 67.6467 47.6218 67.9302 48.2835 68.2108C49.0284 68.5266 49.3891 69.1446 49.1826 69.9896C49.0748 70.4308 48.6874 70.8192 48.9835 71.427Z" fill="white"/>
<path d="M76.6881 71.5958C76.5451 72.055 76.5703 72.5794 75.953 72.4993C75.4808 72.4381 75.4469 72.0289 75.4369 71.6602C75.4184 70.9831 75.3957 70.3039 75.4296 69.6283C75.4591 69.0399 75.2203 68.2963 76.0384 68.031C76.7706 67.7934 77.499 67.9078 78.113 68.3787C78.7137 68.8394 78.9986 69.5425 78.5824 70.1736C78.0443 70.9894 78.6105 71.6255 78.8366 72.2616C77.6329 73.0163 77.6165 71.2173 76.6881 71.5958Z" fill="white"/>
<path d="M100.732 72.4192C100.103 70.9628 100.352 69.5564 100.437 68.0476C101.896 68.1421 102.042 69.547 102.935 69.9981C103.035 69.8817 103.13 69.8174 103.157 69.7318C103.329 69.1843 102.861 68.1731 103.693 68.1617C104.722 68.1475 104.299 69.2136 104.275 69.7833C104.238 70.6707 104.828 71.9368 103.802 72.3605C102.918 72.7255 102.682 71.3073 101.97 70.9091C101.888 70.8629 101.782 70.8582 101.679 70.8321C101.185 71.2659 101.873 72.306 100.732 72.4192Z" fill="white"/>
<path d="M40.0251 72.5978C38.1259 72.5178 36.8452 69.9146 37.8314 68.401C37.9281 68.2525 38.1569 68.0995 38.3213 68.1028C38.8006 68.1126 38.8479 68.5126 38.9198 68.8834C39.0818 69.7187 38.6341 70.6713 39.391 71.4639C40.5204 70.9909 39.9749 70.0182 40.1147 69.2849C40.2079 68.7963 40.0417 68.0845 40.8136 68.1181C41.4556 68.146 41.3917 68.7919 41.3737 69.2374C41.324 70.4682 41.5791 71.8319 40.0251 72.5978Z" fill="white"/>
<path d="M110.341 68.7011C110.708 68.0136 111.256 67.7983 111.609 68.3722C112.373 69.6159 113.056 70.9293 113.214 72.6288C111.774 71.5992 110.417 71.3455 108.992 72.6696C108.998 71.0945 109.855 70.0167 110.341 68.7011Z" fill="white"/>
<path d="M63.1902 68.9812C63.4519 70.0626 63.1619 70.8456 62.1719 71.0295C61.2627 71.1983 61.3849 72.2072 60.7531 72.5349C59.9932 71.8494 59.5977 68.7503 60.2982 68.2783C61.3356 67.5792 62.367 67.8122 63.1902 68.9812Z" fill="white"/>
<path d="M70.6987 72.0385C69.8972 72.9376 68.9797 72.8113 68.1399 72.319C67.6576 72.0362 67.6899 68.5358 68.1639 68.2386C69.0171 67.7035 69.9129 67.6821 70.7182 68.3476C70.7443 69.2039 69.9994 69.0537 69.5024 69.4332C70.7236 70.0549 70.7497 70.6655 69.4129 71.0521C69.633 71.7878 70.4679 71.3574 70.6987 72.0385Z" fill="white"/>
<path d="M84.9947 71.4983C85.3131 70.5945 84.4294 70.7448 84.0769 70.4165C83.5749 69.949 83.2046 69.4472 83.542 68.772C83.8823 68.0908 84.5177 67.8179 85.2587 67.9694C85.7802 68.076 86.3547 68.3267 86.2919 68.9605C86.2188 69.6974 85.5514 69.2561 85.0735 69.3813C85.5299 70.191 86.9609 70.4294 86.4908 71.6952C86.2524 72.3371 85.6968 72.6624 85.0017 72.6611C84.1851 72.6595 83.6222 72.3147 83.4355 71.5127C84.0072 70.8217 84.4368 71.5826 84.9947 71.4983Z" fill="white"/>
<path d="M132.239 68.0893C133.216 67.8276 133.878 68.0317 134.225 68.8535C134.03 69.6148 133.422 69.2299 132.882 69.401C134.165 70.4893 135.871 71.6316 133.029 72.6115C132.252 72.8792 131.548 72.3736 131.435 71.4553C131.997 70.8423 132.453 71.6872 133.05 71.3674C132.778 70.2982 129.937 69.8352 132.239 68.0893Z" fill="white"/>
<path d="M168.62 72.0972C168.655 71.1984 168.655 71.1984 170.005 71.3297C170.009 70.616 169.267 70.6928 168.949 70.3273C168.554 69.8737 168.174 69.4434 168.516 68.8C168.815 68.2394 169.289 67.935 169.926 67.9884C170.464 68.0335 171.053 68.1872 171.126 68.8043C171.228 69.6683 170.39 69.232 169.955 69.4794C170.743 70.1357 172.104 70.583 171.288 71.8926C170.672 72.8816 169.652 72.921 168.62 72.0972Z" fill="white"/>
<path d="M176.313 69.1825C175.651 68.682 175.576 68.1916 176.334 68.0051C177.218 67.7877 178.159 67.7168 179.149 68.3866C178.229 69.2617 178.004 70.2224 178.064 71.3021C178.092 71.7937 178.092 72.4997 177.349 72.4574C176.727 72.4221 176.843 71.7843 176.782 71.3313C176.688 70.63 177.037 69.849 176.313 69.1825Z" fill="white"/>
<path d="M147.142 68.0039C147.86 68.1442 147.954 68.8983 148.466 69.1045C149.224 68.9104 149.389 67.6521 150.613 68.2103C149.929 69.6495 148.853 70.8941 148.618 72.6247C148.209 70.973 147.296 69.745 146.651 68.391C146.567 68.2142 146.816 68.0398 147.142 68.0039Z" fill="white"/>
<path d="M22.4919 71.8245C22.2423 72.4273 21.5352 72.7972 21.5379 72.2328C21.5452 70.6477 20.3822 69.6223 19.9375 68.2766C21.0995 67.5245 21.2145 68.8955 21.8419 69.0857C22.587 68.968 22.6997 67.6023 23.8496 68.2008C23.6849 69.4717 22.2483 70.2929 22.4919 71.8245Z" fill="white"/>
<path d="M138.936 68.2559C139.997 67.7556 140.973 67.6782 142.229 68.4853C140.717 69.246 140.97 70.5319 140.937 71.7421C140.929 72.0601 140.854 72.4022 140.463 72.4418C139.968 72.4918 139.803 72.1071 139.848 71.7358C140.003 70.4588 139.658 69.3477 138.936 68.2559Z" fill="white"/>
<path d="M119.643 72.6444C118.181 72.7931 117.737 72.1061 117.818 70.8842C117.865 70.1599 117.837 69.4305 117.889 68.7066C117.911 68.3895 118.081 68.0949 118.47 68.1012C118.858 68.1074 118.987 68.4029 119.042 68.7216C119.086 68.9759 119.126 69.2436 119.095 69.4961C118.944 70.6969 119.195 71.6408 120.544 71.8317C120.644 72.5568 120.18 72.5654 119.643 72.6444Z" fill="white"/>
<path d="M155.55 72.3684C155.158 70.8884 155.242 69.5152 155.385 68.1317C156.6 68.1009 156.359 68.897 156.39 69.4555C156.488 71.2426 156.472 71.2435 157.914 71.9647C157.333 73.0269 156.463 72.6203 155.55 72.3684Z" fill="white"/>
<path d="M162.547 69.8417C162.557 69.3883 162.559 69.0752 162.58 68.7635C162.604 68.4223 162.741 68.1303 163.128 68.143C163.509 68.1555 163.653 68.4568 163.659 68.7934C163.674 69.7833 163.676 70.7736 163.665 71.7636C163.661 72.0941 163.534 72.4156 163.159 72.4437C162.654 72.4815 162.589 72.0747 162.572 71.7029C162.545 71.1304 162.553 70.5561 162.547 69.8417Z" fill="white"/>
</svg>
