<svg width="91" height="92" viewBox="0 0 91 92" fill="none" xmlns="http://www.w3.org/2000/svg">
<g filter="url(#filter0_d_631_342)">
<rect x="14" y="14" width="62.7925" height="64" rx="4" fill="#E6D8C3"/>
<rect x="14.35" y="14.35" width="62.0925" height="63.3" rx="3.65" stroke="#6C583A" stroke-width="0.7"/>
</g>
<path d="M33.9248 32.4629H56.8682C58.3399 32.4629 59.5369 33.6612 59.5371 35.1318V58.3291H31.2559V35.1318C31.256 33.6613 32.4532 32.4631 33.9248 32.4629ZM31.7637 57.8213H59.0303V41.4238H31.7637V57.8213ZM43.5127 50.6533L39.7031 54.3984L39.7002 54.4014C39.5055 54.597 39.241 54.708 38.958 54.708C38.7099 54.708 38.4772 54.6243 38.2881 54.4688L38.209 54.3975L38.2051 54.3936L36.3164 52.5645L36.6689 52.1992L38.5605 54.0303V54.0312C38.7032 54.1739 38.8626 54.2002 38.958 54.2002C39.0564 54.2002 39.211 54.1734 39.3438 54.042L43.1572 50.291L43.5127 50.6533ZM54.707 52.9912V53.499H45.7471V52.9912H54.707ZM43.5127 44.6152L39.7031 48.3613L39.7002 48.3643C39.5055 48.5597 39.2409 48.6699 38.958 48.6699C38.7098 48.6699 38.4772 48.5863 38.2881 48.4307L38.209 48.3594L38.2051 48.3555L36.3164 46.5273L36.6689 46.1631L38.5605 47.9932V47.9941C38.7032 48.1368 38.8626 48.1631 38.958 48.1631C39.0565 48.1631 39.211 48.1355 39.3438 48.0039L43.1572 44.2539L43.5127 44.6152ZM54.707 46.9541V47.4609H45.7471V46.9541H54.707ZM33.9248 32.9707C32.7331 32.9709 31.7638 33.9401 31.7637 35.1318V40.916H59.0303V35.1318C59.0301 33.94 58.06 32.9707 56.8682 32.9707H33.9248ZM35.7363 36.0859C36.2096 36.0859 36.5937 36.4701 36.5938 36.9434C36.5938 37.4166 36.2096 37.8008 35.7363 37.8008C35.2631 37.8007 34.8789 37.4166 34.8789 36.9434C34.879 36.4702 35.2631 36.086 35.7363 36.0859ZM39.3594 36.0859C39.8325 36.0861 40.2167 36.4702 40.2168 36.9434C40.2168 37.4165 39.8325 37.8006 39.3594 37.8008C38.8861 37.8008 38.502 37.4166 38.502 36.9434C38.502 36.4701 38.8861 36.0859 39.3594 36.0859Z" fill="#E6D8C3" stroke="#3C3C3C" stroke-width="0.7"/>
<defs>
<filter id="filter0_d_631_342" x="0.716981" y="0.716981" width="89.359" height="90.566" filterUnits="userSpaceOnUse" color-interpolation-filters="sRGB">
<feFlood flood-opacity="0" result="BackgroundImageFix"/>
<feColorMatrix in="SourceAlpha" type="matrix" values="0 0 0 0 0 0 0 0 0 0 0 0 0 0 0 0 0 0 127 0" result="hardAlpha"/>
<feOffset/>
<feGaussianBlur stdDeviation="6.64151"/>
<feComposite in2="hardAlpha" operator="out"/>
<feColorMatrix type="matrix" values="0 0 0 0 0 0 0 0 0 0 0 0 0 0 0 0 0 0 0.16 0"/>
<feBlend mode="normal" in2="BackgroundImageFix" result="effect1_dropShadow_631_342"/>
<feBlend mode="normal" in="SourceGraphic" in2="effect1_dropShadow_631_342" result="shape"/>
</filter>
</defs>
</svg>
