<svg width="92" height="92" viewBox="0 0 92 92" fill="none" xmlns="http://www.w3.org/2000/svg">
<g filter="url(#filter0_d_631_343)">
<rect x="14" y="14" width="64" height="64" rx="4" fill="#E6D8C3"/>
<rect x="14.35" y="14.35" width="63.3" height="63.3" rx="3.65" stroke="#6C583A" stroke-width="0.7"/>
</g>
<path d="M67.9951 31.2554L68 59.5366H67.4922L67.4893 34.5288V34.1782H57.127V39.7085H59.5967C61.0876 39.7085 62.2792 40.1395 63.0938 40.8687C63.9043 41.5944 64.373 42.6433 64.373 43.9478V46.2534H61.958V54.7065H45.752V46.2534H43.3369V43.9478C43.3369 42.6434 43.8054 41.5944 44.6162 40.8687C45.4309 40.1394 46.623 39.7085 48.1133 39.7085H50.582V33.6704H53.5049V34.1782H51.0898V39.7085H56.6201V33.6704H67.4873V31.2554H67.9951ZM40.2168 31.2554V33.6704H47.4668V34.1782H40.2178V34.5288L40.2217 59.5366H39.7139L39.709 31.2554H40.2168ZM46.8057 40.3599C46.1701 40.4998 45.4297 40.7798 44.8447 41.3433C44.2495 41.9166 43.8447 42.7559 43.8447 43.9478V45.7466H46.2598V54.1987H51.79V46.2534H49.375V43.9478C49.375 43.5771 49.4235 43.2274 49.5 42.8882L49.5713 42.5728L49.2627 42.4771C48.3316 42.1881 47.5734 41.497 47.207 40.5728L47.0967 40.2954L46.8057 40.3599ZM59.9268 40.4849C59.4592 41.765 58.2594 42.6312 56.874 42.6313C55.4885 42.6313 54.2879 41.7651 53.8203 40.4849L53.7256 40.2261L53.4521 40.2573C52.8085 40.3305 51.9217 40.5314 51.1895 41.0806C50.4387 41.6436 49.8818 42.5498 49.8818 43.9478V45.7466H52.2969V54.1987H61.4502V45.7466H63.8652V43.9478C63.8652 42.5497 63.3085 41.6436 62.5576 41.0806C61.8255 40.5316 60.9395 40.3306 60.2959 40.2573L60.0215 40.2261L59.9268 40.4849ZM54.4922 40.7407C54.9738 41.577 55.8652 42.1235 56.874 42.1235C57.8827 42.1234 58.7733 41.5769 59.2549 40.7407L59.5576 40.2163H54.1904L54.4922 40.7407ZM47.8506 40.7407C48.2122 41.3708 48.8051 41.826 49.5039 42.0181L49.7705 42.0913L49.9033 41.8501C50.1195 41.4582 50.3811 41.1121 50.707 40.8306L51.4189 40.2163H47.5498L47.8506 40.7407Z" fill="#E6D8C3" stroke="#3C3C3C" stroke-width="0.7"/>
<path d="M29.2852 38.5015H31.3057C32.5274 38.5015 33.5804 39.3124 33.8994 40.4585L33.9531 40.6919L36.5225 54.7065H32.9854V59.5366H32.4697V54.7065H28.1201V59.5366H27.6045V54.7065H24.0801L26.6377 40.6948C26.8708 39.4255 27.9823 38.5016 29.2852 38.5015ZM29.2871 39.0083C28.3024 39.0083 27.4488 39.6629 27.1904 40.5933L27.1475 40.7827V40.7837L24.7715 53.7866L24.6963 54.1987H35.9062L35.8301 53.7856L33.4463 40.7817L33.4023 40.5923C33.1438 39.6629 32.2912 39.0083 31.3066 39.0083H29.2871ZM30.2949 31.2554C31.7811 31.2554 32.9852 32.456 32.9854 33.9243C32.9854 35.3927 31.7812 36.5933 30.2949 36.5933C28.8087 36.5932 27.6045 35.3927 27.6045 33.9243C27.6047 32.4561 28.8088 31.2554 30.2949 31.2554ZM30.2949 31.7632C29.0983 31.7632 28.1203 32.7302 28.1201 33.9243C28.1201 35.1186 29.0982 36.0864 30.2949 36.0864C31.4917 36.0864 32.4697 35.1186 32.4697 33.9243C32.4696 32.7301 31.4916 31.7632 30.2949 31.7632Z" fill="#E6D8C3" stroke="#3C3C3C" stroke-width="0.7"/>
<defs>
<filter id="filter0_d_631_343" x="0.716981" y="0.716981" width="90.566" height="90.566" filterUnits="userSpaceOnUse" color-interpolation-filters="sRGB">
<feFlood flood-opacity="0" result="BackgroundImageFix"/>
<feColorMatrix in="SourceAlpha" type="matrix" values="0 0 0 0 0 0 0 0 0 0 0 0 0 0 0 0 0 0 127 0" result="hardAlpha"/>
<feOffset/>
<feGaussianBlur stdDeviation="6.64151"/>
<feComposite in2="hardAlpha" operator="out"/>
<feColorMatrix type="matrix" values="0 0 0 0 0 0 0 0 0 0 0 0 0 0 0 0 0 0 0.16 0"/>
<feBlend mode="normal" in2="BackgroundImageFix" result="effect1_dropShadow_631_343"/>
<feBlend mode="normal" in="SourceGraphic" in2="effect1_dropShadow_631_343" result="shape"/>
</filter>
</defs>
</svg>
